<svg width="85" height="85" viewBox="0 0 85 85" fill="none" xmlns="http://www.w3.org/2000/svg">
<circle cx="42.2388" cy="42.8663" r="41.0116" fill="#F4F4F4" stroke="#D9D9D9" stroke-width="2"/>
<g clip-path="url(#clip0_1249_3601)">
<path d="M24.5295 33.4577L26.5936 25.5145L31.1591 20.952L53.914 21.0382L57.5342 25.4714L60.1083 34.0656L60.4802 56.5095L24.5536 55.292L24.5297 33.4577H24.5295Z" fill="white"/>
<path d="M24.5295 33.4577L26.5936 25.5145L31.1591 20.952L53.914 21.0382L57.5342 25.4714L60.1083 34.0656L60.4802 56.5095L24.5536 55.292L24.5297 33.4577H24.5295Z" fill="url(#paint0_linear_1249_3601)"/>
<path d="M26.863 67.6239C26.3355 67.398 25.7455 66.8332 25.4342 66.2558C25.2133 65.8464 25.1815 65.5702 25.1425 63.7282C25.113 62.339 25.0549 61.6325 24.9652 61.5758C24.8918 61.5294 24.1121 61.4906 23.2324 61.4896L21.6329 61.4879L21.6675 50.717L21.702 39.9462L22.7109 32.4784C23.2657 28.3711 23.7995 24.7483 23.897 24.4277C24.1581 23.5685 24.8996 22.5125 25.6659 21.9084C26.4505 21.2899 28.4881 20.2839 29.8228 19.8561C31.0545 19.4613 33.2893 18.9359 35.22 18.5873C40.4567 17.6418 44.7337 17.6902 50.2649 18.7578C56.5901 19.9785 59.7471 21.6684 60.6347 24.3084C60.7948 24.785 61.2009 27.5118 61.8593 32.5346L62.8444 40.0479V61.4879L61.3065 61.4896C60.4606 61.4906 59.7086 61.5294 59.6352 61.5758C59.5464 61.6321 59.4862 62.3306 59.4544 63.6708C59.3991 66.0007 59.2858 66.4016 58.4852 67.0991C56.9452 68.441 54.2458 67.8094 53.6913 65.9775C53.6159 65.7283 53.5589 64.7448 53.5589 63.6943C53.5589 62.1699 53.5271 61.8175 53.3764 61.6684C53.2132 61.5068 52.0489 61.4879 42.3002 61.4879C32.5513 61.4879 31.387 61.5068 31.2238 61.6684C31.0727 61.818 31.0413 62.1773 31.0403 63.7651C31.0392 65.538 31.0187 65.7243 30.7655 66.2558C30.4393 66.9403 30.1184 67.2523 29.4165 67.5674C28.7769 67.8543 27.469 67.8833 26.863 67.6239ZM29.0788 54.7816C30.1774 54.3929 30.9419 53.3135 30.9419 52.1512C30.9419 50.5347 29.7225 49.3097 28.1133 49.3097C27.3134 49.3097 26.8299 49.4883 26.2383 50.0024C25.5627 50.5896 25.3029 51.1789 25.3029 52.1244C25.3029 53.0176 25.5428 53.6095 26.1269 54.1568C26.8755 54.8586 28.1181 55.1215 29.0788 54.7817V54.7816ZM57.7447 54.6233C59.8426 53.5701 59.8426 50.6787 57.7447 49.6256C56.2583 48.8794 54.4574 49.5247 53.8172 51.033C53.557 51.6463 53.5968 52.754 53.9016 53.3771C54.5855 54.7755 56.3205 55.3382 57.7447 54.6233ZM57.9766 42.0703C58.3171 42.0064 58.713 41.8451 58.8564 41.7118C59.1441 41.4441 59.3664 40.5967 59.2893 40.0611C59.262 39.8715 58.879 37.1491 58.4383 34.0114C57.613 28.1364 57.5237 27.7295 56.9448 27.2113C56.3475 26.6765 56.6314 26.6869 42.3805 26.6816C32.7383 26.6779 28.7914 26.7133 28.4168 26.8067C27.7332 26.9771 27.2557 27.4633 27.0416 28.2067C26.7544 29.2051 25.2204 40.4257 25.308 40.8882C25.4243 41.5021 25.9116 41.9776 26.525 42.0758C27.3572 42.2091 57.2655 42.2038 57.9766 42.0703ZM51.0634 24.1518C51.599 24.029 51.8959 23.7192 51.9989 23.1753C52.0909 22.6899 51.7962 22.0456 51.4004 21.867C51.1915 21.7728 48.6229 21.737 42.2077 21.7388C33.9476 21.7411 33.287 21.7557 33.0573 21.9399C32.5107 22.3781 32.4026 23.0461 32.7793 23.6576C32.9151 23.8782 33.1379 24.0565 33.3303 24.0985C33.5078 24.1372 33.7052 24.1863 33.769 24.2073C34.0534 24.3012 50.6443 24.248 51.0633 24.1518H51.0634Z" fill="#005BBF"/>
</g>
<defs>
<linearGradient id="paint0_linear_1249_3601" x1="43.9162" y1="49.1559" x2="43.9162" y2="21.0081" gradientUnits="userSpaceOnUse">
<stop stop-color="#8ACFF8"/>
<stop offset="1" stop-color="#8ACFF8" stop-opacity="0.2"/>
</linearGradient>
<clipPath id="clip0_1249_3601">
<rect width="41.9009" height="50.4363" fill="white" transform="translate(21.2247 17.5614)"/>
</clipPath>
</defs>
</svg>
