<svg width="85" height="85" viewBox="0 0 85 85" fill="none" xmlns="http://www.w3.org/2000/svg">
<circle cx="42.9486" cy="42.1249" r="41.0116" fill="#F4F4F4" stroke="#D9D9D9" stroke-width="2"/>
<g clip-path="url(#clip0_1249_3600)">
<path d="M25.4711 32.902L27.5155 25.0431L32.0374 20.5291L54.5756 20.6143L58.1613 25.0005L60.7109 33.5034L61.0792 55.7091L25.4949 54.5045L25.4712 32.902H25.4711Z" fill="white"/>
<path d="M25.4711 32.902L27.5155 25.0431L32.0374 20.5291L54.5756 20.6143L58.1613 25.0005L60.7109 33.5034L61.0792 55.7091L25.4949 54.5045L25.4712 32.902H25.4711Z" fill="url(#paint0_linear_1249_3600)"/>
<path d="M27.7823 66.7055C27.2598 66.482 26.6754 65.9232 26.3671 65.3519C26.1483 64.9469 26.1168 64.6736 26.0782 62.8512C26.049 61.4767 25.9914 60.7777 25.9025 60.7216C25.8299 60.6756 25.0576 60.6373 24.1862 60.6363L22.6021 60.6346L22.6363 49.9781L22.6705 39.3216L23.6697 31.9331C24.2192 27.8694 24.748 24.2851 24.8445 23.9678C25.1032 23.1178 25.8376 22.0729 26.5966 21.4753C27.3737 20.8634 29.3919 19.868 30.7139 19.4448C31.9338 19.0541 34.1473 18.5343 36.0596 18.1894C41.2464 17.2539 45.4827 17.3019 50.9613 18.3581C57.2262 19.5658 60.3531 21.2378 61.2322 23.8498C61.3909 24.3213 61.793 27.0191 62.4452 31.9887L63.4209 39.4222V60.6346L61.8976 60.6363C61.0598 60.6373 60.3149 60.6756 60.2423 60.7216C60.1543 60.7773 60.0947 61.4684 60.0632 62.7943C60.0084 65.0995 59.8962 65.4961 59.1032 66.1862C57.5779 67.5139 54.9042 66.889 54.355 65.0766C54.2803 64.83 54.2238 63.8569 54.2238 62.8176C54.2238 61.3093 54.1923 60.9607 54.0431 60.8132C53.8815 60.6534 52.7283 60.6346 43.0724 60.6346C33.4164 60.6346 32.2632 60.6534 32.1016 60.8132C31.9519 60.9612 31.9207 61.3167 31.9198 62.8876C31.9187 64.6417 31.8984 64.826 31.6476 65.3519C31.3245 66.0291 31.0067 66.3378 30.3115 66.6495C29.6779 66.9335 28.3825 66.9621 27.7823 66.7055ZM29.9769 53.9995C31.0651 53.6149 31.8223 52.547 31.8223 51.397C31.8223 49.7977 30.6145 48.5856 29.0207 48.5856C28.2284 48.5856 27.7495 48.7624 27.1636 49.2711C26.4944 49.852 26.2371 50.435 26.2371 51.3705C26.2371 52.2542 26.4747 52.8398 27.0532 53.3814C27.7947 54.0756 29.0254 54.3358 29.9769 53.9996V53.9995ZM58.3698 53.8429C60.4477 52.8008 60.4477 49.9401 58.3698 48.8982C56.8975 48.16 55.1138 48.7984 54.4797 50.2907C54.222 50.8975 54.2614 51.9935 54.5633 52.6099C55.2407 53.9935 56.9592 54.5502 58.3698 53.8429ZM58.5994 41.4231C58.9367 41.3599 59.3289 41.2003 59.4709 41.0685C59.7559 40.8036 59.976 39.9652 59.8997 39.4353C59.8727 39.2477 59.4933 36.5542 59.0568 33.4498C58.2394 27.6372 58.1509 27.2345 57.5775 26.7219C56.9859 26.1928 57.2671 26.203 43.152 26.1978C33.6016 26.1941 29.6923 26.2291 29.3213 26.3216C28.6442 26.4901 28.1712 26.9712 27.9592 27.7067C27.6747 28.6945 26.1553 39.796 26.2421 40.2536C26.3573 40.861 26.8399 41.3314 27.4475 41.4286C28.2718 41.5604 57.8952 41.5552 58.5994 41.4231ZM51.7521 23.6949C52.2827 23.5734 52.5768 23.2668 52.6787 22.7287C52.7699 22.2484 52.478 21.611 52.086 21.4343C51.879 21.3411 49.3349 21.3057 42.9808 21.3075C34.7994 21.3098 34.145 21.3242 33.9175 21.5064C33.3762 21.9399 33.2691 22.6009 33.6422 23.2059C33.7767 23.4241 33.9974 23.6005 34.1879 23.6421C34.3638 23.6804 34.5593 23.729 34.6225 23.7498C34.9041 23.8427 51.337 23.79 51.752 23.6949H51.7521Z" fill="#D85B53"/>
<path d="M27.7823 66.7055C27.2598 66.482 26.6754 65.9232 26.3671 65.3519C26.1483 64.9469 26.1168 64.6736 26.0782 62.8512C26.049 61.4767 25.9914 60.7777 25.9025 60.7216C25.8299 60.6756 25.0576 60.6373 24.1862 60.6363L22.6021 60.6346L22.6363 49.9781L22.6705 39.3216L23.6697 31.9331C24.2192 27.8694 24.748 24.2851 24.8445 23.9678C25.1032 23.1178 25.8376 22.0729 26.5966 21.4753C27.3737 20.8634 29.3919 19.868 30.7139 19.4448C31.9338 19.0541 34.1473 18.5343 36.0596 18.1894C41.2464 17.2539 45.4827 17.3019 50.9613 18.3581C57.2262 19.5658 60.3531 21.2378 61.2322 23.8498C61.3909 24.3213 61.793 27.0191 62.4452 31.9887L63.4209 39.4222V60.6346L61.8976 60.6363C61.0598 60.6373 60.3149 60.6756 60.2423 60.7216C60.1543 60.7773 60.0947 61.4684 60.0632 62.7943C60.0084 65.0995 59.8962 65.4961 59.1032 66.1862C57.5779 67.5139 54.9042 66.889 54.355 65.0766C54.2803 64.83 54.2238 63.8569 54.2238 62.8176C54.2238 61.3093 54.1923 60.9607 54.0431 60.8132C53.8815 60.6534 52.7283 60.6346 43.0724 60.6346C33.4164 60.6346 32.2632 60.6534 32.1016 60.8132C31.9519 60.9612 31.9207 61.3167 31.9198 62.8876C31.9187 64.6417 31.8984 64.826 31.6476 65.3519C31.3245 66.0291 31.0067 66.3378 30.3115 66.6495C29.6779 66.9335 28.3825 66.9621 27.7823 66.7055ZM29.9769 53.9995C31.0651 53.6149 31.8223 52.547 31.8223 51.397C31.8223 49.7977 30.6145 48.5856 29.0207 48.5856C28.2284 48.5856 27.7495 48.7624 27.1636 49.2711C26.4944 49.852 26.2371 50.435 26.2371 51.3705C26.2371 52.2542 26.4747 52.8398 27.0532 53.3814C27.7947 54.0756 29.0254 54.3358 29.9769 53.9996V53.9995ZM58.3698 53.8429C60.4477 52.8008 60.4477 49.9401 58.3698 48.8982C56.8975 48.16 55.1138 48.7984 54.4797 50.2907C54.222 50.8975 54.2614 51.9935 54.5633 52.6099C55.2407 53.9935 56.9592 54.5502 58.3698 53.8429ZM58.5994 41.4231C58.9367 41.3599 59.3289 41.2003 59.4709 41.0685C59.7559 40.8036 59.976 39.9652 59.8997 39.4353C59.8727 39.2477 59.4933 36.5542 59.0568 33.4498C58.2394 27.6372 58.1509 27.2345 57.5775 26.7219C56.9859 26.1928 57.2671 26.203 43.152 26.1978C33.6016 26.1941 29.6923 26.2291 29.3213 26.3216C28.6442 26.4901 28.1712 26.9712 27.9592 27.7067C27.6747 28.6945 26.1553 39.796 26.2421 40.2536C26.3573 40.861 26.8399 41.3314 27.4475 41.4286C28.2718 41.5604 57.8952 41.5552 58.5994 41.4231ZM51.7521 23.6949C52.2827 23.5734 52.5768 23.2668 52.6787 22.7287C52.7699 22.2484 52.478 21.611 52.086 21.4343C51.879 21.3411 49.3349 21.3057 42.9808 21.3075C34.7994 21.3098 34.145 21.3242 33.9175 21.5064C33.3762 21.9399 33.2691 22.6009 33.6422 23.2059C33.7767 23.4241 33.9974 23.6005 34.1879 23.6421C34.3638 23.6804 34.5593 23.729 34.6225 23.7498C34.9041 23.8427 51.337 23.79 51.752 23.6949H51.7521Z" fill="#969696"/>
</g>
<defs>
<linearGradient id="paint0_linear_1249_3600" x1="44.673" y1="48.4335" x2="44.673" y2="20.5845" gradientUnits="userSpaceOnUse">
<stop stop-color="#8ACFF8"/>
<stop offset="1" stop-color="#8ACFF8" stop-opacity="0.2"/>
</linearGradient>
<clipPath id="clip0_1249_3600">
<rect width="41.5017" height="49.9009" fill="white" transform="translate(22.1978 17.1744)"/>
</clipPath>
</defs>
</svg>
