<svg width="24" height="25" viewBox="0 0 24 25" fill="none" xmlns="http://www.w3.org/2000/svg">
<path d="M11.828 2.91931C6.38714 2.91931 1.97134 7.33511 1.97134 12.776C1.97134 18.2169 6.38714 22.6327 11.828 22.6327C17.2689 22.6327 21.6847 18.2169 21.6847 12.776C21.6847 7.33511 17.2689 2.91931 11.828 2.91931ZM12.8137 19.6757H10.8424V17.7043H12.8137V19.6757ZM14.854 12.0367L13.9669 12.9436C13.2572 13.6631 12.8137 14.2545 12.8137 15.733H10.8424V15.2402C10.8424 14.1559 11.2859 13.1703 11.9956 12.4507L13.2178 11.2088C13.5825 10.8539 13.7994 10.3611 13.7994 9.81899C13.7994 8.73476 12.9123 7.84765 11.828 7.84765C10.7438 7.84765 9.85669 8.73476 9.85669 9.81899H7.88535C7.88535 7.64066 9.6497 5.87632 11.828 5.87632C14.0064 5.87632 15.7707 7.64066 15.7707 9.81899C15.7707 10.6864 15.4159 11.4749 14.854 12.0367Z" fill="#393939"/>
</svg>
