<svg width="25" height="22" viewBox="0 0 25 22" fill="none" xmlns="http://www.w3.org/2000/svg">
<path d="M16.5409 21.8621C16.0557 21.8621 15.5706 21.7606 15.1757 21.5688L9.25213 18.6014C8.91364 18.4321 8.24795 18.4434 7.92075 18.6352L5.25799 20.1584C4.10714 20.8128 2.92243 20.9031 2.03109 20.3728C1.12846 19.8538 0.620728 18.7932 0.620728 17.4618V6.49482C0.620728 5.46807 1.2977 4.30594 2.18905 3.79821L7.07453 1.00006C7.89818 0.526175 9.15058 0.492326 9.9968 0.921076L15.9204 3.88847C16.2588 4.05772 16.9132 4.03515 17.2517 3.85462L19.9032 2.34272C21.0541 1.68831 22.2388 1.59805 23.1301 2.12834C24.0327 2.64736 24.5405 3.70795 24.5405 5.03933V16.0176C24.5405 17.0443 23.8635 18.2065 22.9721 18.7142L18.0867 21.5124C17.6579 21.738 17.0938 21.8621 16.5409 21.8621ZM8.63157 16.7961C9.11673 16.7961 9.6019 16.8977 9.9968 17.0895L15.9204 20.0569C16.2588 20.2261 16.9132 20.2036 17.2517 20.023L22.1372 17.2249C22.4983 17.0218 22.848 16.4125 22.848 16.0063V5.02804C22.848 4.31722 22.6449 3.78693 22.2726 3.58383C21.9116 3.38074 21.3474 3.45972 20.7381 3.80949L18.0867 5.3214C17.263 5.79528 16.0106 5.82913 15.1644 5.40038L9.24084 2.43298C8.90236 2.26374 8.24795 2.2863 7.90946 2.46683L3.02398 5.26498C2.66293 5.46807 2.31316 6.07735 2.31316 6.49482V17.4731C2.31316 18.1839 2.51625 18.7142 2.8773 18.9173C3.23835 19.1317 3.8025 19.0414 4.42306 18.6917L7.07453 17.1797C7.51456 16.9202 8.07871 16.7961 8.63157 16.7961Z" fill="#005BBF"/>
<path d="M8.54299 17.7322C8.08039 17.7322 7.69678 17.3486 7.69678 16.886V2.21829C7.69678 1.75569 8.08039 1.37207 8.54299 1.37207C9.00559 1.37207 9.38921 1.75569 9.38921 2.21829V16.886C9.38921 17.3486 9.00559 17.7322 8.54299 17.7322Z" fill="#005BBF"/>
<path d="M16.6328 21.1173C16.1702 21.1173 15.7866 20.7336 15.7866 20.271V5.17458C15.7866 4.71199 16.1702 4.32837 16.6328 4.32837C17.0954 4.32837 17.4791 4.71199 17.4791 5.17458V20.271C17.4791 20.7336 17.0954 21.1173 16.6328 21.1173Z" fill="#005BBF"/>
</svg>
