<svg width="29" height="28" viewBox="0 0 29 28" fill="none" xmlns="http://www.w3.org/2000/svg">
<path d="M13.1818 8.33923H15.4818V10.6392H13.1818V8.33923ZM13.1818 12.9392H15.4818V19.8392H13.1818V12.9392ZM14.3318 2.58923C7.98379 2.58923 2.83179 7.74123 2.83179 14.0892C2.83179 20.4372 7.98379 25.5892 14.3318 25.5892C20.6798 25.5892 25.8318 20.4372 25.8318 14.0892C25.8318 7.74123 20.6798 2.58923 14.3318 2.58923ZM14.3318 23.2892C9.26029 23.2892 5.13179 19.1607 5.13179 14.0892C5.13179 9.01773 9.26029 4.88923 14.3318 4.88923C19.4033 4.88923 23.5318 9.01773 23.5318 14.0892C23.5318 19.1607 19.4033 23.2892 14.3318 23.2892Z" fill="#393939"/>
</svg>
