<svg width="301" height="361" viewBox="0 0 301 361" fill="none" xmlns="http://www.w3.org/2000/svg">
<path d="M151.589 213.05C151.53 212.858 151.449 212.686 151.344 212.535C151.243 212.381 151.12 212.25 150.975 212.141C150.833 212.032 150.67 211.95 150.485 211.896C150.3 211.839 150.099 211.81 149.881 211.81C149.491 211.81 149.143 211.909 148.837 212.105C148.532 212.302 148.292 212.59 148.116 212.972C147.944 213.35 147.857 213.812 147.857 214.357C147.857 214.906 147.944 215.371 148.116 215.752C148.289 216.133 148.53 216.423 148.837 216.622C149.145 216.819 149.503 216.917 149.91 216.917C150.279 216.917 150.599 216.846 150.869 216.704C151.141 216.562 151.35 216.361 151.497 216.1C151.644 215.837 151.717 215.53 151.717 215.177L152.016 215.223H150.041V214.193H152.992V215.067C152.992 215.689 152.86 216.228 152.594 216.683C152.329 217.137 151.965 217.487 151.501 217.734C151.037 217.978 150.504 218.099 149.903 218.099C149.233 218.099 148.644 217.949 148.138 217.648C147.634 217.345 147.239 216.916 146.955 216.359C146.674 215.801 146.533 215.138 146.533 214.371C146.533 213.784 146.616 213.259 146.781 212.798C146.949 212.336 147.184 211.944 147.484 211.622C147.785 211.298 148.138 211.052 148.543 210.884C148.947 210.713 149.388 210.628 149.864 210.628C150.266 210.628 150.641 210.687 150.989 210.805C151.337 210.921 151.646 211.087 151.916 211.303C152.188 211.518 152.412 211.774 152.587 212.07C152.763 212.366 152.877 212.692 152.932 213.05H151.589ZM154.266 218V210.727H155.584V214.069H155.672L158.51 210.727H160.118L157.306 213.991L160.143 218H158.559L156.39 214.882L155.584 215.834V218H154.266ZM165.618 210.727H166.936V215.479C166.936 216 166.813 216.458 166.566 216.853C166.323 217.248 165.979 217.557 165.537 217.78C165.094 218 164.577 218.11 163.985 218.11C163.391 218.11 162.872 218 162.429 217.78C161.987 217.557 161.643 217.248 161.4 216.853C161.156 216.458 161.034 216 161.034 215.479V210.727H162.351V215.369C162.351 215.672 162.417 215.942 162.55 216.178C162.685 216.415 162.874 216.601 163.118 216.736C163.362 216.868 163.651 216.935 163.985 216.935C164.319 216.935 164.607 216.868 164.851 216.736C165.097 216.601 165.287 216.415 165.419 216.178C165.552 215.942 165.618 215.672 165.618 215.369V210.727ZM170.777 218V217.048L173.302 214.573C173.544 214.329 173.745 214.113 173.906 213.923C174.067 213.734 174.187 213.55 174.268 213.373C174.348 213.195 174.389 213.006 174.389 212.805C174.389 212.575 174.337 212.379 174.232 212.215C174.128 212.049 173.985 211.922 173.803 211.832C173.62 211.742 173.413 211.697 173.181 211.697C172.942 211.697 172.733 211.746 172.553 211.846C172.373 211.943 172.233 212.081 172.134 212.261C172.037 212.441 171.988 212.656 171.988 212.904H170.735C170.735 212.442 170.84 212.041 171.051 211.7C171.261 211.359 171.551 211.095 171.921 210.908C172.292 210.721 172.718 210.628 173.199 210.628C173.687 210.628 174.115 210.719 174.485 210.901C174.854 211.084 175.14 211.333 175.344 211.651C175.55 211.968 175.653 212.33 175.653 212.737C175.653 213.009 175.601 213.277 175.497 213.54C175.392 213.803 175.209 214.094 174.946 214.413C174.686 214.733 174.32 215.12 173.849 215.575L172.595 216.849V216.899H175.763V218H170.777Z" fill="#002582"/>
<path d="M197.589 214.05C197.53 213.858 197.449 213.686 197.344 213.535C197.243 213.381 197.12 213.25 196.975 213.141C196.833 213.032 196.67 212.95 196.485 212.896C196.3 212.839 196.099 212.81 195.881 212.81C195.491 212.81 195.143 212.909 194.837 213.105C194.532 213.302 194.292 213.59 194.116 213.972C193.944 214.35 193.857 214.812 193.857 215.357C193.857 215.906 193.944 216.371 194.116 216.752C194.289 217.133 194.53 217.423 194.837 217.622C195.145 217.819 195.503 217.917 195.91 217.917C196.279 217.917 196.599 217.846 196.869 217.704C197.141 217.562 197.35 217.361 197.497 217.1C197.644 216.837 197.717 216.53 197.717 216.177L198.016 216.223H196.041V215.193H198.992V216.067C198.992 216.689 198.86 217.228 198.594 217.683C198.329 218.137 197.965 218.487 197.501 218.734C197.037 218.978 196.504 219.099 195.903 219.099C195.233 219.099 194.644 218.949 194.138 218.648C193.634 218.345 193.239 217.916 192.955 217.359C192.674 216.801 192.533 216.138 192.533 215.371C192.533 214.784 192.616 214.259 192.781 213.798C192.949 213.336 193.184 212.944 193.484 212.622C193.785 212.298 194.138 212.052 194.543 211.884C194.947 211.713 195.388 211.628 195.864 211.628C196.266 211.628 196.641 211.687 196.989 211.805C197.337 211.921 197.646 212.087 197.916 212.303C198.188 212.518 198.412 212.774 198.587 213.07C198.763 213.366 198.877 213.692 198.932 214.05H197.589ZM200.266 219V211.727H201.584V215.069H201.672L204.51 211.727H206.118L203.306 214.991L206.143 219H204.559L202.39 215.882L201.584 216.834V219H200.266ZM211.618 211.727H212.936V216.479C212.936 217 212.813 217.458 212.566 217.853C212.323 218.248 211.979 218.557 211.537 218.78C211.094 219 210.577 219.11 209.985 219.11C209.391 219.11 208.872 219 208.429 218.78C207.987 218.557 207.643 218.248 207.4 217.853C207.156 217.458 207.034 217 207.034 216.479V211.727H208.351V216.369C208.351 216.672 208.417 216.942 208.55 217.178C208.685 217.415 208.874 217.601 209.118 217.736C209.362 217.868 209.651 217.935 209.985 217.935C210.319 217.935 210.607 217.868 210.851 217.736C211.097 217.601 211.287 217.415 211.419 217.178C211.552 216.942 211.618 216.672 211.618 216.369V211.727ZM219.735 211.727V219H218.418V213.009H218.375L216.674 214.096V212.888L218.482 211.727H219.735Z" fill="#002582"/>
<path d="M212.589 175.05C212.53 174.858 212.449 174.686 212.344 174.535C212.243 174.381 212.12 174.25 211.975 174.141C211.833 174.032 211.67 173.95 211.485 173.896C211.3 173.839 211.099 173.81 210.881 173.81C210.491 173.81 210.143 173.909 209.837 174.105C209.532 174.302 209.292 174.59 209.116 174.972C208.944 175.35 208.857 175.812 208.857 176.357C208.857 176.906 208.944 177.371 209.116 177.752C209.289 178.133 209.53 178.423 209.837 178.622C210.145 178.819 210.503 178.917 210.91 178.917C211.279 178.917 211.599 178.846 211.869 178.704C212.141 178.562 212.35 178.361 212.497 178.1C212.644 177.837 212.717 177.53 212.717 177.177L213.016 177.223H211.041V176.193H213.992V177.067C213.992 177.689 213.86 178.228 213.594 178.683C213.329 179.137 212.965 179.487 212.501 179.734C212.037 179.978 211.504 180.099 210.903 180.099C210.233 180.099 209.644 179.949 209.138 179.648C208.634 179.345 208.239 178.916 207.955 178.359C207.674 177.801 207.533 177.138 207.533 176.371C207.533 175.784 207.616 175.259 207.781 174.798C207.949 174.336 208.184 173.944 208.484 173.622C208.785 173.298 209.138 173.052 209.543 172.884C209.947 172.713 210.388 172.628 210.864 172.628C211.266 172.628 211.641 172.687 211.989 172.805C212.337 172.921 212.646 173.087 212.916 173.303C213.188 173.518 213.412 173.774 213.587 174.07C213.763 174.366 213.877 174.692 213.932 175.05H212.589ZM217.624 180.107C217.077 180.107 216.605 179.993 216.207 179.766C215.812 179.536 215.508 179.212 215.295 178.793C215.081 178.371 214.975 177.875 214.975 177.305C214.975 176.744 215.081 176.251 215.295 175.827C215.51 175.401 215.811 175.07 216.197 174.833C216.582 174.594 217.036 174.474 217.557 174.474C217.893 174.474 218.21 174.529 218.508 174.638C218.809 174.744 219.074 174.91 219.304 175.135C219.536 175.36 219.718 175.646 219.851 175.994C219.983 176.34 220.05 176.752 220.05 177.23V177.624H215.579V176.758H218.817C218.815 176.512 218.762 176.293 218.657 176.101C218.553 175.907 218.408 175.754 218.221 175.643C218.036 175.531 217.821 175.476 217.574 175.476C217.312 175.476 217.081 175.54 216.882 175.668C216.683 175.793 216.528 175.959 216.417 176.165C216.308 176.368 216.252 176.592 216.25 176.836V177.592C216.25 177.91 216.308 178.182 216.424 178.409C216.54 178.634 216.702 178.807 216.91 178.928C217.119 179.046 217.363 179.105 217.642 179.105C217.829 179.105 217.998 179.079 218.15 179.027C218.301 178.973 218.433 178.893 218.544 178.789C218.655 178.685 218.739 178.556 218.796 178.402L219.996 178.537C219.921 178.854 219.776 179.131 219.563 179.368C219.352 179.602 219.082 179.785 218.753 179.915C218.424 180.043 218.048 180.107 217.624 180.107ZM223.161 180.096C222.733 180.096 222.349 179.986 222.011 179.766C221.672 179.545 221.405 179.226 221.208 178.807C221.012 178.388 220.913 177.879 220.913 177.28C220.913 176.674 221.013 176.162 221.212 175.746C221.413 175.327 221.684 175.011 222.025 174.798C222.366 174.582 222.746 174.474 223.165 174.474C223.484 174.474 223.747 174.529 223.953 174.638C224.159 174.744 224.322 174.873 224.443 175.025C224.564 175.174 224.657 175.315 224.724 175.447H224.777V172.727H226.066V180H224.802V179.141H224.724C224.657 179.273 224.562 179.414 224.436 179.563C224.311 179.71 224.145 179.835 223.939 179.94C223.733 180.044 223.474 180.096 223.161 180.096ZM223.52 179.041C223.792 179.041 224.024 178.968 224.216 178.821C224.408 178.672 224.553 178.465 224.653 178.2C224.752 177.934 224.802 177.625 224.802 177.273C224.802 176.92 224.752 176.613 224.653 176.353C224.556 176.093 224.411 175.89 224.219 175.746C224.03 175.601 223.797 175.529 223.52 175.529C223.233 175.529 222.994 175.604 222.803 175.753C222.611 175.902 222.466 176.108 222.369 176.371C222.272 176.634 222.224 176.934 222.224 177.273C222.224 177.614 222.272 177.918 222.369 178.185C222.469 178.451 222.614 178.66 222.806 178.814C223 178.965 223.238 179.041 223.52 179.041ZM230.912 177.706V174.545H232.198V180H230.952V179.031H230.895C230.772 179.336 230.569 179.586 230.287 179.78C230.008 179.974 229.664 180.071 229.254 180.071C228.897 180.071 228.581 179.992 228.306 179.833C228.034 179.672 227.821 179.439 227.667 179.134C227.513 178.826 227.436 178.454 227.436 178.018V174.545H228.721V177.82C228.721 178.165 228.816 178.44 229.006 178.643C229.195 178.847 229.443 178.949 229.751 178.949C229.941 178.949 230.124 178.903 230.302 178.81C230.479 178.718 230.625 178.581 230.738 178.398C230.854 178.214 230.912 177.983 230.912 177.706ZM234.805 176.804V180H233.52V174.545H234.749V175.472H234.812C234.938 175.167 235.138 174.924 235.413 174.744C235.69 174.564 236.032 174.474 236.439 174.474C236.815 174.474 237.143 174.555 237.423 174.716C237.704 174.877 237.922 175.11 238.076 175.415C238.232 175.721 238.309 176.091 238.307 176.527V180H237.021V176.726C237.021 176.361 236.927 176.076 236.737 175.87C236.55 175.664 236.291 175.561 235.96 175.561C235.735 175.561 235.535 175.611 235.359 175.71C235.187 175.807 235.05 175.948 234.951 176.133C234.854 176.317 234.805 176.541 234.805 176.804ZM241.986 182.159C241.524 182.159 241.128 182.096 240.796 181.971C240.465 181.848 240.198 181.682 239.997 181.474C239.796 181.265 239.656 181.035 239.578 180.781L240.736 180.501C240.788 180.607 240.864 180.713 240.963 180.817C241.063 180.923 241.196 181.011 241.364 181.08C241.535 181.151 241.749 181.186 242.007 181.186C242.372 181.186 242.674 181.097 242.913 180.92C243.152 180.745 243.271 180.456 243.271 180.053V179.02H243.207C243.141 179.152 243.044 179.289 242.916 179.428C242.791 179.568 242.624 179.685 242.415 179.78C242.21 179.875 241.95 179.922 241.638 179.922C241.219 179.922 240.839 179.824 240.498 179.627C240.159 179.428 239.889 179.132 239.688 178.739C239.489 178.344 239.39 177.849 239.39 177.255C239.39 176.656 239.489 176.151 239.688 175.739C239.889 175.324 240.161 175.011 240.501 174.798C240.842 174.582 241.222 174.474 241.641 174.474C241.961 174.474 242.224 174.529 242.43 174.638C242.638 174.744 242.804 174.873 242.927 175.025C243.05 175.174 243.143 175.315 243.207 175.447H243.278V174.545H244.546V180.089C244.546 180.555 244.435 180.941 244.212 181.246C243.99 181.552 243.686 181.78 243.3 181.932C242.914 182.083 242.476 182.159 241.986 182.159ZM241.996 178.913C242.269 178.913 242.501 178.847 242.692 178.714C242.884 178.582 243.03 178.391 243.129 178.143C243.229 177.894 243.278 177.596 243.278 177.248C243.278 176.905 243.229 176.604 243.129 176.346C243.032 176.088 242.888 175.888 242.696 175.746C242.507 175.601 242.273 175.529 241.996 175.529C241.71 175.529 241.471 175.604 241.279 175.753C241.087 175.902 240.943 176.107 240.846 176.367C240.749 176.625 240.7 176.919 240.7 177.248C240.7 177.582 240.749 177.874 240.846 178.125C240.945 178.374 241.091 178.568 241.283 178.707C241.477 178.845 241.715 178.913 241.996 178.913Z" fill="#002582"/>
<path d="M205.717 191V183.727H208.445C209.003 183.727 209.472 183.824 209.851 184.018C210.232 184.213 210.52 184.485 210.714 184.835C210.91 185.183 211.009 185.589 211.009 186.053C211.009 186.52 210.909 186.924 210.71 187.268C210.514 187.609 210.224 187.873 209.84 188.06C209.457 188.244 208.986 188.337 208.427 188.337H206.484V187.243H208.249C208.576 187.243 208.844 187.198 209.052 187.108C209.26 187.016 209.414 186.882 209.513 186.707C209.615 186.529 209.666 186.311 209.666 186.053C209.666 185.795 209.615 185.575 209.513 185.393C209.412 185.208 209.257 185.068 209.048 184.974C208.84 184.877 208.571 184.828 208.242 184.828H207.035V191H205.717ZM209.474 187.705L211.275 191H209.805L208.036 187.705H209.474ZM214.501 191.107C213.954 191.107 213.482 190.993 213.084 190.766C212.689 190.536 212.385 190.212 212.172 189.793C211.958 189.371 211.852 188.875 211.852 188.305C211.852 187.744 211.958 187.251 212.172 186.827C212.387 186.401 212.688 186.07 213.074 185.833C213.459 185.594 213.913 185.474 214.434 185.474C214.77 185.474 215.087 185.529 215.385 185.638C215.686 185.744 215.951 185.91 216.181 186.135C216.413 186.36 216.595 186.646 216.728 186.994C216.86 187.34 216.926 187.752 216.926 188.23V188.624H212.456V187.758H215.694C215.692 187.512 215.639 187.293 215.534 187.101C215.43 186.907 215.285 186.754 215.098 186.643C214.913 186.531 214.698 186.476 214.451 186.476C214.189 186.476 213.958 186.54 213.759 186.668C213.56 186.793 213.405 186.959 213.294 187.165C213.185 187.368 213.129 187.592 213.127 187.836V188.592C213.127 188.91 213.185 189.182 213.301 189.409C213.417 189.634 213.579 189.807 213.787 189.928C213.996 190.046 214.239 190.105 214.519 190.105C214.706 190.105 214.875 190.079 215.027 190.027C215.178 189.973 215.31 189.893 215.421 189.789C215.532 189.685 215.616 189.556 215.673 189.402L216.873 189.537C216.797 189.854 216.653 190.131 216.44 190.368C216.229 190.602 215.959 190.785 215.63 190.915C215.301 191.043 214.925 191.107 214.501 191.107ZM219.186 189.288L219.182 187.737H219.388L221.349 185.545H222.851L220.439 188.23H220.173L219.186 189.288ZM218.014 191V183.727H219.3V191H218.014ZM221.437 191L219.662 188.518L220.528 187.612L222.975 191H221.437ZM226.431 185.545V186.54H223.295V185.545H226.431ZM224.07 184.239H225.355V189.359C225.355 189.532 225.381 189.665 225.433 189.757C225.488 189.847 225.559 189.909 225.646 189.942C225.734 189.975 225.831 189.991 225.938 189.991C226.018 189.991 226.091 189.986 226.158 189.974C226.226 189.962 226.278 189.951 226.314 189.942L226.531 190.947C226.462 190.97 226.364 190.996 226.236 191.025C226.11 191.053 225.956 191.07 225.774 191.075C225.452 191.084 225.162 191.036 224.904 190.929C224.646 190.82 224.441 190.652 224.29 190.425C224.141 190.197 224.067 189.913 224.07 189.572V184.239ZM229.827 191.107C229.294 191.107 228.833 190.989 228.442 190.755C228.051 190.521 227.748 190.193 227.533 189.771C227.32 189.35 227.213 188.857 227.213 188.294C227.213 187.731 227.32 187.237 227.533 186.813C227.748 186.389 228.051 186.06 228.442 185.826C228.833 185.592 229.294 185.474 229.827 185.474C230.36 185.474 230.821 185.592 231.212 185.826C231.602 186.06 231.904 186.389 232.117 186.813C232.333 187.237 232.441 187.731 232.441 188.294C232.441 188.857 232.333 189.35 232.117 189.771C231.904 190.193 231.602 190.521 231.212 190.755C230.821 190.989 230.36 191.107 229.827 191.107ZM229.834 190.077C230.123 190.077 230.364 189.997 230.558 189.839C230.753 189.678 230.897 189.462 230.992 189.192C231.089 188.923 231.137 188.622 231.137 188.29C231.137 187.957 231.089 187.655 230.992 187.385C230.897 187.113 230.753 186.896 230.558 186.735C230.364 186.574 230.123 186.494 229.834 186.494C229.538 186.494 229.292 186.574 229.095 186.735C228.901 186.896 228.756 187.113 228.659 187.385C228.564 187.655 228.517 187.957 228.517 188.29C228.517 188.622 228.564 188.923 228.659 189.192C228.756 189.462 228.901 189.678 229.095 189.839C229.292 189.997 229.538 190.077 229.834 190.077ZM233.532 191V185.545H234.778V186.455H234.835C234.934 186.14 235.105 185.897 235.346 185.727C235.59 185.554 235.868 185.467 236.181 185.467C236.252 185.467 236.331 185.471 236.419 185.478C236.509 185.483 236.583 185.491 236.642 185.503V186.685C236.588 186.666 236.502 186.65 236.383 186.636C236.267 186.619 236.155 186.611 236.046 186.611C235.811 186.611 235.601 186.662 235.414 186.763C235.229 186.863 235.083 187.001 234.977 187.179C234.87 187.357 234.817 187.561 234.817 187.793V191H233.532ZM238.968 191.11C238.623 191.11 238.311 191.049 238.034 190.925C237.76 190.8 237.542 190.615 237.381 190.371C237.222 190.128 237.143 189.827 237.143 189.469C237.143 189.162 237.2 188.907 237.314 188.706C237.427 188.505 237.582 188.344 237.779 188.223C237.975 188.102 238.197 188.011 238.443 187.95C238.691 187.886 238.948 187.839 239.213 187.811C239.533 187.778 239.792 187.748 239.991 187.722C240.19 187.694 240.334 187.651 240.424 187.594C240.517 187.535 240.563 187.444 240.563 187.321V187.3C240.563 187.032 240.484 186.825 240.325 186.678C240.166 186.531 239.938 186.458 239.64 186.458C239.325 186.458 239.075 186.527 238.89 186.664C238.708 186.801 238.585 186.964 238.521 187.151L237.321 186.98C237.415 186.649 237.572 186.372 237.789 186.149C238.007 185.924 238.274 185.756 238.588 185.645C238.903 185.531 239.251 185.474 239.632 185.474C239.895 185.474 240.157 185.505 240.417 185.567C240.678 185.628 240.916 185.73 241.131 185.872C241.346 186.012 241.519 186.202 241.65 186.444C241.782 186.685 241.848 186.987 241.848 187.349V191H240.613V190.251H240.57C240.492 190.402 240.382 190.544 240.24 190.677C240.1 190.807 239.924 190.912 239.711 190.993C239.5 191.071 239.252 191.11 238.968 191.11ZM239.302 190.165C239.56 190.165 239.784 190.115 239.973 190.013C240.163 189.909 240.308 189.771 240.41 189.601C240.514 189.43 240.566 189.245 240.566 189.043V188.401C240.526 188.434 240.458 188.464 240.36 188.493C240.266 188.521 240.159 188.546 240.041 188.567C239.922 188.589 239.805 188.608 239.689 188.624C239.573 188.641 239.473 188.655 239.387 188.667C239.196 188.693 239.024 188.736 238.873 188.795C238.721 188.854 238.601 188.937 238.514 189.043C238.426 189.147 238.382 189.282 238.382 189.448C238.382 189.685 238.469 189.864 238.642 189.984C238.815 190.105 239.035 190.165 239.302 190.165ZM245.865 185.545V186.54H242.729V185.545H245.865ZM243.503 184.239H244.789V189.359C244.789 189.532 244.815 189.665 244.867 189.757C244.921 189.847 244.992 189.909 245.08 189.942C245.167 189.975 245.265 189.991 245.371 189.991C245.452 189.991 245.525 189.986 245.591 189.974C245.66 189.962 245.712 189.951 245.748 189.942L245.964 190.947C245.895 190.97 245.797 190.996 245.669 191.025C245.544 191.053 245.39 191.07 245.208 191.075C244.886 191.084 244.596 191.036 244.338 190.929C244.08 190.82 243.875 190.652 243.723 190.425C243.574 190.197 243.501 189.913 243.503 189.572V184.239Z" fill="#002582"/>
<path d="M215.717 140V132.727H217.035V136.069H217.124L219.961 132.727H221.57L218.757 135.991L221.594 140H220.011L217.841 136.882L217.035 137.834V140H215.717ZM228.593 136.364C228.593 137.147 228.446 137.818 228.153 138.377C227.861 138.933 227.464 139.36 226.959 139.656C226.457 139.951 225.888 140.099 225.251 140.099C224.614 140.099 224.044 139.951 223.54 139.656C223.038 139.357 222.64 138.93 222.346 138.374C222.055 137.815 221.91 137.145 221.91 136.364C221.91 135.58 222.055 134.91 222.346 134.354C222.64 133.795 223.038 133.368 223.54 133.072C224.044 132.776 224.614 132.628 225.251 132.628C225.888 132.628 226.457 132.776 226.959 133.072C227.464 133.368 227.861 133.795 228.153 134.354C228.446 134.91 228.593 135.58 228.593 136.364ZM227.268 136.364C227.268 135.812 227.182 135.347 227.009 134.968C226.839 134.587 226.602 134.299 226.299 134.105C225.996 133.909 225.647 133.81 225.251 133.81C224.856 133.81 224.507 133.909 224.204 134.105C223.901 134.299 223.663 134.587 223.49 134.968C223.319 135.347 223.234 135.812 223.234 136.364C223.234 136.915 223.319 137.382 223.49 137.763C223.663 138.142 223.901 138.429 224.204 138.626C224.507 138.82 224.856 138.917 225.251 138.917C225.647 138.917 225.996 138.82 226.299 138.626C226.602 138.429 226.839 138.142 227.009 137.763C227.182 137.382 227.268 136.915 227.268 136.364ZM231.156 132.727V140H229.838V132.727H231.156ZM238.808 135.181H237.48C237.442 134.963 237.372 134.77 237.27 134.602C237.168 134.432 237.042 134.287 236.89 134.169C236.739 134.051 236.566 133.962 236.372 133.903C236.18 133.841 235.973 133.81 235.75 133.81C235.355 133.81 235.004 133.91 234.699 134.109C234.394 134.305 234.155 134.594 233.982 134.975C233.809 135.354 233.722 135.817 233.722 136.364C233.722 136.92 233.809 137.389 233.982 137.77C234.157 138.149 234.396 138.435 234.699 138.629C235.004 138.821 235.354 138.917 235.747 138.917C235.964 138.917 236.168 138.888 236.357 138.832C236.549 138.772 236.721 138.686 236.872 138.572C237.026 138.459 237.155 138.319 237.259 138.153C237.366 137.988 237.439 137.798 237.48 137.585L238.808 137.592C238.758 137.938 238.65 138.262 238.485 138.565C238.321 138.868 238.107 139.136 237.842 139.368C237.577 139.598 237.267 139.777 236.911 139.908C236.556 140.036 236.162 140.099 235.729 140.099C235.09 140.099 234.519 139.951 234.017 139.656C233.515 139.36 233.12 138.932 232.831 138.374C232.542 137.815 232.398 137.145 232.398 136.364C232.398 135.58 232.544 134.91 232.835 134.354C233.126 133.795 233.522 133.368 234.024 133.072C234.526 132.776 235.094 132.628 235.729 132.628C236.134 132.628 236.51 132.685 236.858 132.798C237.206 132.912 237.516 133.079 237.789 133.299C238.061 133.517 238.285 133.784 238.46 134.102C238.637 134.416 238.753 134.776 238.808 135.181ZM240.86 140H239.454L242.014 132.727H243.641L246.205 140H244.798L242.856 134.219H242.799L240.86 140ZM240.906 137.148H244.742V138.207H240.906V137.148Z" fill="#002582"/>
<path d="M284.589 86.0497C284.53 85.858 284.449 85.6863 284.344 85.5348C284.243 85.3809 284.12 85.2495 283.975 85.1406C283.833 85.0317 283.67 84.95 283.485 84.8956C283.3 84.8388 283.099 84.8104 282.881 84.8104C282.491 84.8104 282.143 84.9086 281.837 85.1051C281.532 85.3016 281.292 85.5904 281.116 85.9716C280.944 86.3504 280.857 86.812 280.857 87.3565C280.857 87.9058 280.944 88.371 281.116 88.7521C281.289 89.1333 281.53 89.4233 281.837 89.6222C282.145 89.8187 282.503 89.9169 282.91 89.9169C283.279 89.9169 283.599 89.8459 283.869 89.7038C284.141 89.5618 284.35 89.3606 284.497 89.1001C284.644 88.8374 284.717 88.5296 284.717 88.1768L285.016 88.223H283.041V87.1932H285.992V88.0668C285.992 88.6894 285.86 89.228 285.594 89.6825C285.329 90.1371 284.965 90.4875 284.501 90.7337C284.037 90.9775 283.504 91.0994 282.903 91.0994C282.233 91.0994 281.644 90.9491 281.138 90.6484C280.634 90.3454 280.239 89.9157 279.955 89.3594C279.674 88.8007 279.533 88.1378 279.533 87.3707C279.533 86.7836 279.616 86.2592 279.781 85.7976C279.949 85.3359 280.184 84.9441 280.484 84.6222C280.785 84.2978 281.138 84.0516 281.543 83.8835C281.947 83.7131 282.388 83.6278 282.864 83.6278C283.266 83.6278 283.641 83.687 283.989 83.8054C284.337 83.9214 284.646 84.0871 284.916 84.3026C285.188 84.518 285.412 84.7737 285.587 85.0696C285.763 85.3655 285.877 85.6922 285.932 86.0497H284.589ZM291.219 85.7266C291.185 85.4164 291.046 85.175 290.8 85.0021C290.556 84.8293 290.238 84.7429 289.848 84.7429C289.573 84.7429 289.338 84.7843 289.141 84.8672C288.945 84.95 288.794 85.0625 288.69 85.2045C288.586 85.3466 288.533 85.5088 288.53 85.6911C288.53 85.8426 288.565 85.974 288.633 86.0852C288.704 86.1965 288.8 86.2912 288.921 86.3693C289.042 86.4451 289.175 86.509 289.322 86.5611C289.469 86.6132 289.617 86.657 289.766 86.6925L290.448 86.8629C290.723 86.9268 290.987 87.0133 291.24 87.1222C291.496 87.2311 291.724 87.3684 291.925 87.5341C292.129 87.6998 292.29 87.8999 292.408 88.1342C292.527 88.3686 292.586 88.6432 292.586 88.9581C292.586 89.3842 292.477 89.7595 292.259 90.0838C292.041 90.4058 291.726 90.6579 291.314 90.8402C290.905 91.0201 290.409 91.1101 289.827 91.1101C289.261 91.1101 288.769 91.0225 288.353 90.8473C287.939 90.6721 287.614 90.4164 287.38 90.0803C287.148 89.7441 287.022 89.3345 287.003 88.8516H288.3C288.318 89.1049 288.397 89.3156 288.534 89.4837C288.671 89.6518 288.85 89.7772 289.07 89.8601C289.293 89.9429 289.541 89.9844 289.816 89.9844C290.102 89.9844 290.353 89.9418 290.569 89.8565C290.787 89.7689 290.957 89.6482 291.08 89.4943C291.203 89.3381 291.266 89.1558 291.268 88.9474C291.266 88.758 291.21 88.6018 291.101 88.4787C290.992 88.3532 290.84 88.2491 290.643 88.1662C290.449 88.081 290.222 88.0052 289.961 87.9389L289.134 87.7259C288.535 87.572 288.062 87.3388 287.714 87.0263C287.368 86.7114 287.195 86.2936 287.195 85.7727C287.195 85.3442 287.311 84.969 287.543 84.647C287.778 84.325 288.096 84.0753 288.498 83.8977C288.901 83.7178 289.357 83.6278 289.866 83.6278C290.382 83.6278 290.834 83.7178 291.222 83.8977C291.613 84.0753 291.919 84.3227 292.142 84.6399C292.364 84.9548 292.479 85.317 292.486 85.7266H291.219ZM298.632 86.0497C298.573 85.858 298.492 85.6863 298.387 85.5348C298.286 85.3809 298.163 85.2495 298.018 85.1406C297.876 85.0317 297.713 84.95 297.528 84.8956C297.343 84.8388 297.142 84.8104 296.924 84.8104C296.534 84.8104 296.186 84.9086 295.88 85.1051C295.575 85.3016 295.335 85.5904 295.159 85.9716C294.987 86.3504 294.9 86.812 294.9 87.3565C294.9 87.9058 294.987 88.371 295.159 88.7521C295.332 89.1333 295.573 89.4233 295.88 89.6222C296.188 89.8187 296.546 89.9169 296.953 89.9169C297.322 89.9169 297.642 89.8459 297.912 89.7038C298.184 89.5618 298.393 89.3606 298.54 89.1001C298.687 88.8374 298.76 88.5296 298.76 88.1768L299.059 88.223H297.084V87.1932H300.035V88.0668C300.035 88.6894 299.903 89.228 299.637 89.6825C299.372 90.1371 299.008 90.4875 298.544 90.7337C298.08 90.9775 297.547 91.0994 296.946 91.0994C296.276 91.0994 295.687 90.9491 295.181 90.6484C294.676 90.3454 294.282 89.9157 293.998 89.3594C293.717 88.8007 293.576 88.1378 293.576 87.3707C293.576 86.7836 293.658 86.2592 293.824 85.7976C293.992 85.3359 294.227 84.9441 294.527 84.6222C294.828 84.2978 295.181 84.0516 295.586 83.8835C295.99 83.7131 296.431 83.6278 296.907 83.6278C297.309 83.6278 297.684 83.687 298.032 83.8054C298.38 83.9214 298.689 84.0871 298.959 84.3026C299.231 84.518 299.455 84.7737 299.63 85.0696C299.806 85.3655 299.92 85.6922 299.975 86.0497H298.632Z" fill="#002582"/>
<path d="M147.651 35H146.245L148.805 27.7273H150.432L152.996 35H151.589L149.647 29.2188H149.59L147.651 35ZM147.697 32.1484H151.533V33.2067H147.697V32.1484ZM158.12 30.9872L156.948 31.1151C156.915 30.9967 156.857 30.8854 156.774 30.7812C156.694 30.6771 156.585 30.593 156.447 30.5291C156.31 30.4652 156.142 30.4332 155.943 30.4332C155.676 30.4332 155.451 30.4912 155.268 30.6072C155.089 30.7232 155 30.8736 155.002 31.0582C155 31.2169 155.058 31.3459 155.176 31.4453C155.297 31.5447 155.496 31.6264 155.773 31.6903L156.703 31.8892C157.219 32.0005 157.603 32.1768 157.854 32.4183C158.107 32.6598 158.235 32.9759 158.237 33.3665C158.235 33.7098 158.134 34.0128 157.935 34.2756C157.739 34.536 157.465 34.7396 157.115 34.8864C156.765 35.0331 156.362 35.1065 155.908 35.1065C155.24 35.1065 154.703 34.9669 154.295 34.6875C153.888 34.4058 153.646 34.014 153.567 33.5121L154.821 33.3913C154.878 33.6375 154.999 33.8234 155.183 33.9489C155.368 34.0743 155.608 34.1371 155.904 34.1371C156.21 34.1371 156.455 34.0743 156.639 33.9489C156.826 33.8234 156.92 33.6683 156.92 33.4837C156.92 33.3274 156.859 33.1984 156.739 33.0966C156.62 32.9948 156.436 32.9167 156.185 32.8622L155.254 32.6669C154.731 32.558 154.344 32.3745 154.093 32.1165C153.842 31.8561 153.718 31.527 153.72 31.1293C153.718 30.7931 153.809 30.5019 153.994 30.2557C154.181 30.0071 154.44 29.8153 154.771 29.6804C155.105 29.5431 155.49 29.4744 155.925 29.4744C156.565 29.4744 157.068 29.6106 157.435 29.8828C157.804 30.1551 158.032 30.5232 158.12 30.9872ZM159.297 35V29.5455H160.544V30.4545H160.6C160.7 30.1397 160.87 29.897 161.112 29.7266C161.356 29.5537 161.634 29.4673 161.946 29.4673C162.017 29.4673 162.097 29.4709 162.184 29.478C162.274 29.4827 162.349 29.491 162.408 29.5028V30.6854C162.354 30.6664 162.267 30.6499 162.149 30.6357C162.033 30.6191 161.92 30.6108 161.811 30.6108C161.577 30.6108 161.366 30.6617 161.179 30.7635C160.995 30.8629 160.849 31.0014 160.743 31.179C160.636 31.3565 160.583 31.5613 160.583 31.7933V35H159.297ZM164.734 35.1101C164.388 35.1101 164.077 35.0485 163.8 34.9254C163.525 34.8 163.308 34.6153 163.147 34.3714C162.988 34.1276 162.909 33.8269 162.909 33.4695C162.909 33.1617 162.966 32.9072 163.079 32.706C163.193 32.5047 163.348 32.3438 163.544 32.223C163.741 32.1023 163.962 32.0111 164.208 31.9496C164.457 31.8857 164.714 31.8395 164.979 31.8111C165.299 31.7779 165.558 31.7483 165.757 31.7223C165.956 31.6939 166.1 31.6513 166.19 31.5945C166.282 31.5353 166.328 31.4441 166.328 31.321V31.2997C166.328 31.0322 166.249 30.825 166.091 30.6783C165.932 30.5315 165.703 30.4581 165.405 30.4581C165.09 30.4581 164.841 30.5268 164.656 30.6641C164.474 30.8014 164.35 30.9635 164.287 31.1506L163.086 30.9801C163.181 30.6487 163.337 30.3717 163.555 30.1491C163.773 29.9242 164.039 29.7562 164.354 29.6449C164.669 29.5312 165.017 29.4744 165.398 29.4744C165.661 29.4744 165.922 29.5052 166.183 29.5668C166.443 29.6283 166.681 29.7301 166.897 29.8722C167.112 30.0118 167.285 30.2024 167.415 30.4439C167.548 30.6854 167.614 30.9872 167.614 31.3494V35H166.378V34.2507H166.336C166.257 34.4022 166.147 34.5443 166.005 34.6768C165.866 34.8071 165.689 34.9124 165.476 34.9929C165.266 35.071 165.018 35.1101 164.734 35.1101ZM165.068 34.1655C165.326 34.1655 165.55 34.1146 165.739 34.0128C165.928 33.9086 166.074 33.7713 166.176 33.6009C166.28 33.4304 166.332 33.2446 166.332 33.0433V32.4006C166.292 32.4337 166.223 32.4645 166.126 32.4929C166.031 32.5213 165.925 32.5462 165.806 32.5675C165.688 32.5888 165.571 32.6077 165.455 32.6243C165.339 32.6409 165.238 32.6551 165.153 32.6669C164.961 32.6929 164.79 32.7356 164.638 32.7947C164.487 32.8539 164.367 32.9368 164.279 33.0433C164.192 33.1475 164.148 33.2824 164.148 33.4482C164.148 33.6849 164.234 33.8636 164.407 33.9844C164.58 34.1051 164.8 34.1655 165.068 34.1655ZM168.907 35V29.5455H170.135V30.4723H170.199C170.313 30.1598 170.501 29.916 170.764 29.7408C171.027 29.5632 171.34 29.4744 171.705 29.4744C172.074 29.4744 172.386 29.5644 172.639 29.7443C172.895 29.9219 173.074 30.1645 173.179 30.4723H173.235C173.356 30.1693 173.56 29.9278 173.846 29.7479C174.135 29.5656 174.477 29.4744 174.873 29.4744C175.374 29.4744 175.784 29.633 176.101 29.9503C176.418 30.2675 176.577 30.7304 176.577 31.3388V35H175.288V31.5376C175.288 31.1991 175.198 30.9517 175.018 30.7955C174.838 30.6368 174.618 30.5575 174.358 30.5575C174.047 30.5575 173.805 30.6546 173.63 30.8487C173.457 31.0405 173.37 31.2902 173.37 31.598V35H172.11V31.4844C172.11 31.2027 172.025 30.9777 171.854 30.8097C171.686 30.6416 171.466 30.5575 171.194 30.5575C171.009 30.5575 170.841 30.6049 170.689 30.6996C170.538 30.7919 170.417 30.9233 170.327 31.0938C170.237 31.2618 170.192 31.4583 170.192 31.6832V35H168.907ZM179.451 35.1101C179.105 35.1101 178.794 35.0485 178.517 34.9254C178.242 34.8 178.024 34.6153 177.863 34.3714C177.705 34.1276 177.626 33.8269 177.626 33.4695C177.626 33.1617 177.682 32.9072 177.796 32.706C177.91 32.5047 178.065 32.3438 178.261 32.223C178.458 32.1023 178.679 32.0111 178.925 31.9496C179.174 31.8857 179.431 31.8395 179.696 31.8111C180.015 31.7779 180.275 31.7483 180.474 31.7223C180.672 31.6939 180.817 31.6513 180.907 31.5945C180.999 31.5353 181.045 31.4441 181.045 31.321V31.2997C181.045 31.0322 180.966 30.825 180.807 30.6783C180.649 30.5315 180.42 30.4581 180.122 30.4581C179.807 30.4581 179.557 30.5268 179.373 30.6641C179.19 30.8014 179.067 30.9635 179.003 31.1506L177.803 30.9801C177.898 30.6487 178.054 30.3717 178.272 30.1491C178.49 29.9242 178.756 29.7562 179.071 29.6449C179.386 29.5312 179.734 29.4744 180.115 29.4744C180.378 29.4744 180.639 29.5052 180.9 29.5668C181.16 29.6283 181.398 29.7301 181.613 29.8722C181.829 30.0118 182.002 30.2024 182.132 30.4439C182.265 30.6854 182.331 30.9872 182.331 31.3494V35H181.095V34.2507H181.052C180.974 34.4022 180.864 34.5443 180.722 34.6768C180.582 34.8071 180.406 34.9124 180.193 34.9929C179.982 35.071 179.735 35.1101 179.451 35.1101ZM179.785 34.1655C180.043 34.1655 180.266 34.1146 180.456 34.0128C180.645 33.9086 180.791 33.7713 180.893 33.6009C180.997 33.4304 181.049 33.2446 181.049 33.0433V32.4006C181.009 32.4337 180.94 32.4645 180.843 32.4929C180.748 32.5213 180.642 32.5462 180.523 32.5675C180.405 32.5888 180.288 32.6077 180.172 32.6243C180.056 32.6409 179.955 32.6551 179.87 32.6669C179.678 32.6929 179.506 32.7356 179.355 32.7947C179.203 32.8539 179.084 32.9368 178.996 33.0433C178.909 33.1475 178.865 33.2824 178.865 33.4482C178.865 33.6849 178.951 33.8636 179.124 33.9844C179.297 34.1051 179.517 34.1655 179.785 34.1655Z" fill="#002582"/>
<path d="M87.6513 52H86.245L88.8054 44.7273H90.4318L92.9957 52H91.5895L89.647 46.2188H89.5902L87.6513 52ZM87.6974 49.1484H91.5327V50.2067H87.6974V49.1484ZM98.12 47.9872L96.9482 48.1151C96.915 47.9967 96.857 47.8854 96.7741 47.7812C96.6937 47.6771 96.5848 47.593 96.4474 47.5291C96.3101 47.4652 96.142 47.4332 95.9432 47.4332C95.6757 47.4332 95.4508 47.4912 95.2685 47.6072C95.0885 47.7232 94.9998 47.8736 95.0021 48.0582C94.9998 48.2169 95.0578 48.3459 95.1761 48.4453C95.2969 48.5447 95.4957 48.6264 95.7727 48.6903L96.7031 48.8892C97.2192 49.0005 97.6027 49.1768 97.8537 49.4183C98.107 49.6598 98.2348 49.9759 98.2372 50.3665C98.2348 50.7098 98.1342 51.0128 97.9354 51.2756C97.7389 51.536 97.4654 51.7396 97.1151 51.8864C96.7647 52.0331 96.3622 52.1065 95.9077 52.1065C95.2401 52.1065 94.7027 51.9669 94.2955 51.6875C93.8883 51.4058 93.6456 51.014 93.5675 50.5121L94.821 50.3913C94.8778 50.6375 94.9986 50.8234 95.1832 50.9489C95.3679 51.0743 95.6082 51.1371 95.9041 51.1371C96.2095 51.1371 96.4545 51.0743 96.6392 50.9489C96.8262 50.8234 96.9197 50.6683 96.9197 50.4837C96.9197 50.3274 96.8594 50.1984 96.7386 50.0966C96.6203 49.9948 96.4356 49.9167 96.1847 49.8622L95.2543 49.6669C94.7311 49.558 94.344 49.3745 94.093 49.1165C93.8421 48.8561 93.7178 48.527 93.7202 48.1293C93.7178 47.7931 93.8089 47.5019 93.9936 47.2557C94.1806 47.0071 94.4399 46.8153 94.7713 46.6804C95.1051 46.5431 95.4898 46.4744 95.9254 46.4744C96.5646 46.4744 97.0677 46.6106 97.4347 46.8828C97.804 47.1551 98.0324 47.5232 98.12 47.9872ZM99.2972 52V46.5455H100.544V47.4545H100.6C100.7 47.1397 100.87 46.897 101.112 46.7266C101.356 46.5537 101.634 46.4673 101.946 46.4673C102.017 46.4673 102.097 46.4709 102.184 46.478C102.274 46.4827 102.349 46.491 102.408 46.5028V47.6854C102.354 47.6664 102.267 47.6499 102.149 47.6357C102.033 47.6191 101.92 47.6108 101.811 47.6108C101.577 47.6108 101.366 47.6617 101.179 47.7635C100.995 47.8629 100.849 48.0014 100.743 48.179C100.636 48.3565 100.583 48.5613 100.583 48.7933V52H99.2972ZM104.734 52.1101C104.388 52.1101 104.077 52.0485 103.8 51.9254C103.525 51.8 103.308 51.6153 103.147 51.3714C102.988 51.1276 102.909 50.8269 102.909 50.4695C102.909 50.1617 102.966 49.9072 103.079 49.706C103.193 49.5047 103.348 49.3438 103.544 49.223C103.741 49.1023 103.962 49.0111 104.208 48.9496C104.457 48.8857 104.714 48.8395 104.979 48.8111C105.299 48.7779 105.558 48.7483 105.757 48.7223C105.956 48.6939 106.1 48.6513 106.19 48.5945C106.282 48.5353 106.328 48.4441 106.328 48.321V48.2997C106.328 48.0322 106.249 47.825 106.091 47.6783C105.932 47.5315 105.703 47.4581 105.405 47.4581C105.09 47.4581 104.841 47.5268 104.656 47.6641C104.474 47.8014 104.35 47.9635 104.287 48.1506L103.086 47.9801C103.181 47.6487 103.337 47.3717 103.555 47.1491C103.773 46.9242 104.039 46.7562 104.354 46.6449C104.669 46.5312 105.017 46.4744 105.398 46.4744C105.661 46.4744 105.922 46.5052 106.183 46.5668C106.443 46.6283 106.681 46.7301 106.897 46.8722C107.112 47.0118 107.285 47.2024 107.415 47.4439C107.548 47.6854 107.614 47.9872 107.614 48.3494V52H106.378V51.2507H106.336C106.257 51.4022 106.147 51.5443 106.005 51.6768C105.866 51.8071 105.689 51.9124 105.476 51.9929C105.266 52.071 105.018 52.1101 104.734 52.1101ZM105.068 51.1655C105.326 51.1655 105.55 51.1146 105.739 51.0128C105.928 50.9086 106.074 50.7713 106.176 50.6009C106.28 50.4304 106.332 50.2446 106.332 50.0433V49.4006C106.292 49.4337 106.223 49.4645 106.126 49.4929C106.031 49.5213 105.925 49.5462 105.806 49.5675C105.688 49.5888 105.571 49.6077 105.455 49.6243C105.339 49.6409 105.238 49.6551 105.153 49.6669C104.961 49.6929 104.79 49.7356 104.638 49.7947C104.487 49.8539 104.367 49.9368 104.279 50.0433C104.192 50.1475 104.148 50.2824 104.148 50.4482C104.148 50.6849 104.234 50.8636 104.407 50.9844C104.58 51.1051 104.8 51.1655 105.068 51.1655ZM108.907 52V46.5455H110.135V47.4723H110.199C110.313 47.1598 110.501 46.916 110.764 46.7408C111.027 46.5632 111.34 46.4744 111.705 46.4744C112.074 46.4744 112.386 46.5644 112.639 46.7443C112.895 46.9219 113.074 47.1645 113.179 47.4723H113.235C113.356 47.1693 113.56 46.9278 113.846 46.7479C114.135 46.5656 114.477 46.4744 114.873 46.4744C115.374 46.4744 115.784 46.633 116.101 46.9503C116.418 47.2675 116.577 47.7304 116.577 48.3388V52H115.288V48.5376C115.288 48.1991 115.198 47.9517 115.018 47.7955C114.838 47.6368 114.618 47.5575 114.358 47.5575C114.047 47.5575 113.805 47.6546 113.63 47.8487C113.457 48.0405 113.37 48.2902 113.37 48.598V52H112.11V48.4844C112.11 48.2027 112.025 47.9777 111.854 47.8097C111.686 47.6416 111.466 47.5575 111.194 47.5575C111.009 47.5575 110.841 47.6049 110.689 47.6996C110.538 47.7919 110.417 47.9233 110.327 48.0938C110.237 48.2618 110.192 48.4583 110.192 48.6832V52H108.907ZM119.451 52.1101C119.105 52.1101 118.794 52.0485 118.517 51.9254C118.242 51.8 118.024 51.6153 117.863 51.3714C117.705 51.1276 117.626 50.8269 117.626 50.4695C117.626 50.1617 117.682 49.9072 117.796 49.706C117.91 49.5047 118.065 49.3438 118.261 49.223C118.458 49.1023 118.679 49.0111 118.925 48.9496C119.174 48.8857 119.431 48.8395 119.696 48.8111C120.015 48.7779 120.275 48.7483 120.474 48.7223C120.672 48.6939 120.817 48.6513 120.907 48.5945C120.999 48.5353 121.045 48.4441 121.045 48.321V48.2997C121.045 48.0322 120.966 47.825 120.807 47.6783C120.649 47.5315 120.42 47.4581 120.122 47.4581C119.807 47.4581 119.557 47.5268 119.373 47.6641C119.19 47.8014 119.067 47.9635 119.003 48.1506L117.803 47.9801C117.898 47.6487 118.054 47.3717 118.272 47.1491C118.49 46.9242 118.756 46.7562 119.071 46.6449C119.386 46.5312 119.734 46.4744 120.115 46.4744C120.378 46.4744 120.639 46.5052 120.9 46.5668C121.16 46.6283 121.398 46.7301 121.613 46.8722C121.829 47.0118 122.002 47.2024 122.132 47.4439C122.265 47.6854 122.331 47.9872 122.331 48.3494V52H121.095V51.2507H121.052C120.974 51.4022 120.864 51.5443 120.722 51.6768C120.582 51.8071 120.406 51.9124 120.193 51.9929C119.982 52.071 119.735 52.1101 119.451 52.1101ZM119.785 51.1655C120.043 51.1655 120.266 51.1146 120.456 51.0128C120.645 50.9086 120.791 50.7713 120.893 50.6009C120.997 50.4304 121.049 50.2446 121.049 50.0433V49.4006C121.009 49.4337 120.94 49.4645 120.843 49.4929C120.748 49.5213 120.642 49.5462 120.523 49.5675C120.405 49.5888 120.288 49.6077 120.172 49.6243C120.056 49.6409 119.955 49.6551 119.87 49.6669C119.678 49.6929 119.506 49.7356 119.355 49.7947C119.203 49.8539 119.084 49.9368 118.996 50.0433C118.909 50.1475 118.865 50.2824 118.865 50.4482C118.865 50.6849 118.951 50.8636 119.124 50.9844C119.297 51.1051 119.517 51.1655 119.785 51.1655Z" fill="#002582"/>
<path d="M94.3977 57.8317V56.7273H100.2V57.8317H97.9524V64H96.6456V57.8317H94.3977ZM101.319 64V56.7273H104.103C104.629 56.7273 105.065 56.8101 105.413 56.9759C105.764 57.1392 106.025 57.3629 106.198 57.647C106.373 57.9311 106.461 58.2531 106.461 58.6129C106.461 58.9089 106.404 59.1622 106.29 59.3729C106.177 59.5812 106.024 59.7505 105.832 59.8807C105.641 60.0109 105.426 60.1044 105.19 60.1612V60.2322C105.448 60.2464 105.695 60.3258 105.932 60.4702C106.171 60.6122 106.366 60.8134 106.518 61.0739C106.669 61.3343 106.745 61.6491 106.745 62.0185C106.745 62.3949 106.654 62.7334 106.472 63.0341C106.289 63.3324 106.015 63.5679 105.648 63.7408C105.281 63.9136 104.819 64 104.263 64H101.319ZM102.636 62.8991H104.053C104.531 62.8991 104.876 62.808 105.087 62.6257C105.3 62.4411 105.406 62.2043 105.406 61.9155C105.406 61.7 105.353 61.5059 105.246 61.3331C105.14 61.1579 104.988 61.0206 104.792 60.9212C104.595 60.8194 104.361 60.7685 104.089 60.7685H102.636V62.8991ZM102.636 59.8203H103.94C104.167 59.8203 104.372 59.7789 104.554 59.696C104.736 59.6108 104.879 59.4912 104.984 59.3374C105.09 59.1811 105.143 58.9964 105.143 58.7834C105.143 58.5017 105.044 58.2696 104.845 58.0874C104.649 57.9051 104.356 57.8139 103.968 57.8139H102.636V59.8203ZM112.829 64.0994C112.356 64.0994 111.932 64.0107 111.558 63.8331C111.184 63.6532 110.887 63.407 110.666 63.0945C110.449 62.782 110.333 62.4245 110.318 62.022H111.597C111.62 62.3203 111.749 62.5642 111.984 62.7536C112.218 62.9406 112.5 63.0341 112.829 63.0341C113.087 63.0341 113.317 62.9749 113.518 62.8565C113.719 62.7382 113.878 62.5736 113.994 62.3629C114.11 62.1522 114.167 61.9119 114.164 61.642C114.167 61.3674 114.109 61.1236 113.99 60.9105C113.872 60.6974 113.71 60.5305 113.504 60.4098C113.298 60.2867 113.061 60.2251 112.794 60.2251C112.576 60.2228 112.361 60.263 112.151 60.3459C111.94 60.4287 111.773 60.5376 111.65 60.6726L110.46 60.4773L110.84 56.7273H115.059V57.8281H111.931L111.721 59.7564H111.764C111.899 59.5978 112.089 59.4664 112.335 59.3622C112.582 59.2557 112.852 59.2024 113.145 59.2024C113.585 59.2024 113.978 59.3066 114.324 59.5149C114.67 59.7209 114.942 60.005 115.141 60.3672C115.34 60.7294 115.439 61.1437 115.439 61.6101C115.439 62.0907 115.328 62.5192 115.105 62.8956C114.885 63.2696 114.579 63.5644 114.186 63.7798C113.795 63.9929 113.343 64.0994 112.829 64.0994Z" fill="#002582"/>
<path d="M19.7173 110V102.727H21.0348V108.896H24.2379V110H19.7173ZM26.8942 110.11C26.5485 110.11 26.2372 110.049 25.9602 109.925C25.6856 109.8 25.4678 109.615 25.3068 109.371C25.1482 109.128 25.0689 108.827 25.0689 108.469C25.0689 108.162 25.1257 107.907 25.2393 107.706C25.353 107.505 25.508 107.344 25.7045 107.223C25.901 107.102 26.1224 107.011 26.3686 106.95C26.6172 106.886 26.8741 106.839 27.1392 106.811C27.4588 106.778 27.718 106.748 27.9169 106.722C28.1158 106.694 28.2602 106.651 28.3501 106.594C28.4425 106.535 28.4886 106.444 28.4886 106.321V106.3C28.4886 106.032 28.4093 105.825 28.2507 105.678C28.0921 105.531 27.8636 105.458 27.5653 105.458C27.2505 105.458 27.0007 105.527 26.8161 105.664C26.6338 105.801 26.5107 105.964 26.4467 106.151L25.2464 105.98C25.3411 105.649 25.4974 105.372 25.7152 105.149C25.933 104.924 26.1993 104.756 26.5142 104.645C26.8291 104.531 27.1771 104.474 27.5582 104.474C27.821 104.474 28.0826 104.505 28.343 104.567C28.6035 104.628 28.8414 104.73 29.0568 104.872C29.2723 105.012 29.4451 105.202 29.5753 105.444C29.7079 105.685 29.7741 105.987 29.7741 106.349V110H28.5384V109.251H28.4957C28.4176 109.402 28.3075 109.544 28.1655 109.677C28.0258 109.807 27.8494 109.912 27.6364 109.993C27.4257 110.071 27.1783 110.11 26.8942 110.11ZM27.228 109.165C27.486 109.165 27.7098 109.115 27.8991 109.013C28.0885 108.909 28.2341 108.771 28.3359 108.601C28.4401 108.43 28.4922 108.245 28.4922 108.043V107.401C28.4519 107.434 28.3833 107.464 28.2862 107.493C28.1915 107.521 28.085 107.546 27.9666 107.567C27.8482 107.589 27.7311 107.608 27.6151 107.624C27.4991 107.641 27.3984 107.655 27.3132 107.667C27.1214 107.693 26.9498 107.736 26.7983 107.795C26.6468 107.854 26.5272 107.937 26.4396 108.043C26.352 108.147 26.3082 108.282 26.3082 108.448C26.3082 108.685 26.3946 108.864 26.5675 108.984C26.7403 109.105 26.9605 109.165 27.228 109.165ZM31.1236 110V102.727H32.4091V105.447H32.4624C32.5286 105.315 32.6222 105.174 32.7429 105.025C32.8636 104.873 33.027 104.744 33.233 104.638C33.4389 104.529 33.7017 104.474 34.0213 104.474C34.4427 104.474 34.8227 104.582 35.1612 104.798C35.5021 105.011 35.772 105.327 35.9709 105.746C36.1721 106.162 36.2727 106.674 36.2727 107.28C36.2727 107.879 36.1745 108.388 35.978 108.807C35.7815 109.226 35.514 109.545 35.1754 109.766C34.8369 109.986 34.4534 110.096 34.0249 110.096C33.7124 110.096 33.4531 110.044 33.2472 109.94C33.0412 109.835 32.8755 109.71 32.75 109.563C32.6269 109.414 32.531 109.273 32.4624 109.141H32.3878V110H31.1236ZM32.3842 107.273C32.3842 107.625 32.4339 107.934 32.5334 108.2C32.6352 108.465 32.7808 108.672 32.9702 108.821C33.1619 108.968 33.3939 109.041 33.6662 109.041C33.9503 109.041 34.1882 108.965 34.38 108.814C34.5717 108.66 34.7161 108.451 34.8132 108.185C34.9126 107.918 34.9624 107.614 34.9624 107.273C34.9624 106.934 34.9138 106.634 34.8168 106.371C34.7197 106.108 34.5753 105.902 34.3835 105.753C34.1918 105.604 33.9527 105.529 33.6662 105.529C33.3916 105.529 33.1584 105.601 32.9666 105.746C32.7749 105.89 32.6293 106.093 32.5298 106.353C32.4328 106.613 32.3842 106.92 32.3842 107.273ZM40.0893 104.545V105.54H36.9537V104.545H40.0893ZM37.7278 103.239H39.0133V108.359C39.0133 108.532 39.0394 108.665 39.0914 108.757C39.1459 108.847 39.2169 108.909 39.3045 108.942C39.3921 108.975 39.4892 108.991 39.5957 108.991C39.6762 108.991 39.7496 108.986 39.8159 108.974C39.8845 108.962 39.9366 108.951 39.9721 108.942L40.1887 109.947C40.1201 109.97 40.0218 109.996 39.894 110.025C39.7685 110.053 39.6146 110.07 39.4324 110.075C39.1104 110.084 38.8204 110.036 38.5623 109.929C38.3043 109.82 38.0995 109.652 37.948 109.425C37.7988 109.197 37.7254 108.913 37.7278 108.572V103.239ZM43.5206 110.107C42.9737 110.107 42.5014 109.993 42.1037 109.766C41.7083 109.536 41.4041 109.212 41.1911 108.793C40.978 108.371 40.8714 107.875 40.8714 107.305C40.8714 106.744 40.978 106.251 41.1911 105.827C41.4065 105.401 41.7071 105.07 42.093 104.833C42.4789 104.594 42.9323 104.474 43.4531 104.474C43.7893 104.474 44.1065 104.529 44.4048 104.638C44.7055 104.744 44.9706 104.91 45.2003 105.135C45.4323 105.36 45.6146 105.646 45.7472 105.994C45.8797 106.34 45.946 106.752 45.946 107.23V107.624H41.4751V106.758H44.7138C44.7114 106.512 44.6581 106.293 44.554 106.101C44.4498 105.907 44.3042 105.754 44.1172 105.643C43.9325 105.531 43.7171 105.476 43.4709 105.476C43.2081 105.476 42.9773 105.54 42.7784 105.668C42.5795 105.793 42.4245 105.959 42.3132 106.165C42.2043 106.368 42.1487 106.592 42.1463 106.836V107.592C42.1463 107.91 42.2043 108.182 42.3203 108.409C42.4363 108.634 42.5985 108.807 42.8068 108.928C43.0152 109.046 43.259 109.105 43.5384 109.105C43.7254 109.105 43.8946 109.079 44.0462 109.027C44.1977 108.973 44.3291 108.893 44.4403 108.789C44.5516 108.685 44.6357 108.556 44.6925 108.402L45.8928 108.537C45.817 108.854 45.6726 109.131 45.4595 109.368C45.2488 109.602 44.9789 109.785 44.6499 109.915C44.3208 110.043 43.9444 110.107 43.5206 110.107ZM48.2054 108.288L48.2019 106.737H48.4078L50.3681 104.545H51.8702L49.459 107.23H49.1926L48.2054 108.288ZM47.0336 110V102.727H48.3191V110H47.0336ZM50.4569 110L48.6813 107.518L49.5478 106.612L51.9945 110H50.4569Z" fill="#002582"/>
<path d="M33.0348 114.727V122H31.7173V114.727H33.0348ZM35.3954 122H33.9892L36.5495 114.727H38.176L40.7399 122H39.3336L37.3912 116.219H37.3343L35.3954 122ZM35.4416 119.148H39.2768V120.207H35.4416V119.148Z" fill="#002582"/>
<path d="M48 308C44.4 315.6 23.1666 322.167 13 324.5C10.8333 325.333 6.59998 327.4 6.99998 329C7.49998 331 4.99998 334 13 334C21 334 40 334.5 57.5 329C75 323.5 93 265 98.5 255.5C104 246 116 240.5 131.5 236.5C143.9 233.3 212.667 235.167 245.5 236.5C249.167 237.167 257.4 236.6 261 229C265.5 219.5 264.5 71.5 261 67C258.2 63.4 236.167 62.1667 225.5 62C224.833 46 222.2 12.9 217 8.50002C211.8 4.10002 178.833 6.66669 163 8.50002C147.333 9.50002 113.9 12 105.5 14C97.1 16 78.3333 42.1667 70 55L65 115L52.5 270C52.5 279.5 51.6 300.4 48 308Z" stroke="#F28B07" stroke-width="4"/>
<rect x="13.9983" y="323.407" width="33" height="16.2727" rx="8.13636" transform="rotate(50.6918 13.9983 323.407)" fill="white" stroke="#005BBF" stroke-width="2"/>
<path d="M14.8405 335.314C14.9626 335.192 15.0196 335.051 15.0114 334.891C15.0031 334.73 14.9288 334.564 14.7884 334.393C14.693 334.276 14.596 334.192 14.4974 334.138C14.3998 334.084 14.3049 334.059 14.2127 334.063C14.1213 334.068 14.0394 334.1 13.9668 334.16C13.9046 334.207 13.8622 334.263 13.8396 334.327C13.8179 334.393 13.8109 334.464 13.8184 334.54C13.827 334.616 13.8458 334.696 13.8747 334.78C13.9047 334.864 13.9416 334.949 13.9854 335.037L14.1612 335.399C14.2488 335.574 14.3155 335.745 14.3614 335.913C14.4072 336.081 14.4269 336.243 14.4205 336.399C14.414 336.555 14.3766 336.702 14.3083 336.84C14.2409 336.98 14.1373 337.108 13.9975 337.224C13.79 337.392 13.5676 337.486 13.3305 337.506C13.0953 337.526 12.8559 337.472 12.6122 337.345C12.3705 337.218 12.1372 337.017 11.9122 336.742C11.689 336.47 11.5364 336.198 11.4544 335.927C11.3733 335.658 11.3682 335.4 11.4393 335.152C11.5124 334.905 11.6681 334.679 11.9065 334.475L12.4721 335.166C12.3652 335.266 12.2972 335.376 12.2681 335.495C12.2411 335.615 12.2479 335.739 12.2886 335.867C12.3314 335.995 12.4031 336.121 12.5039 336.244C12.6029 336.365 12.7064 336.456 12.8145 336.516C12.9234 336.577 13.0295 336.607 13.1326 336.605C13.2357 336.603 13.328 336.569 13.4093 336.502C13.4851 336.44 13.5304 336.366 13.5452 336.278C13.5609 336.192 13.5517 336.091 13.5178 335.976C13.4848 335.861 13.4327 335.73 13.3616 335.583L13.153 335.14C12.9891 334.799 12.9134 334.485 12.9257 334.2C12.938 333.914 13.0693 333.67 13.3197 333.467C13.5232 333.298 13.7464 333.206 13.9891 333.191C14.2328 333.177 14.4767 333.232 14.7208 333.355C14.9649 333.478 15.1877 333.663 15.3893 333.909C15.5944 334.16 15.7306 334.414 15.7979 334.671C15.866 334.929 15.8665 335.173 15.7992 335.402C15.7319 335.632 15.599 335.83 15.4006 335.998L14.8405 335.314ZM16.1087 336.083L16.6973 335.601L18.9676 338.374L18.379 338.856L17.5327 337.822L14.7449 340.105L14.1672 339.399L16.955 337.117L16.1087 336.083ZM16.1038 341.764L15.4775 340.999L19.8082 339.401L20.5613 340.321L18.1379 344.249L17.5116 343.484L19.424 340.505L19.4024 340.479L16.1038 341.764ZM17.3918 340.63L18.8711 342.437L18.3139 342.893L16.8346 341.086L17.3918 340.63ZM18.4706 344.655L21.847 341.891L22.9376 343.223C23.1464 343.478 23.2789 343.733 23.3353 343.988C23.3936 344.243 23.3785 344.486 23.2899 344.716C23.2034 344.947 23.0485 345.153 22.8254 345.336C22.6012 345.52 22.3687 345.629 22.128 345.665C21.8883 345.699 21.6505 345.66 21.4145 345.547C21.1794 345.434 20.9556 345.249 20.7433 344.989L20.0131 344.097L20.5868 343.628L21.2225 344.404C21.3341 344.54 21.4455 344.638 21.5566 344.698C21.6678 344.757 21.7787 344.779 21.8895 344.761C22.0011 344.745 22.1124 344.692 22.2234 344.601C22.3355 344.509 22.4116 344.409 22.4516 344.301C22.4926 344.194 22.4955 344.079 22.4604 343.955C22.4272 343.832 22.3544 343.701 22.242 343.564L21.8478 343.083L19.0551 345.369L18.4706 344.655ZM21.5 345.221L20.6505 347.318L20.0053 346.53L20.8696 344.451L21.5 345.221ZM23.6475 345.291L24.2361 344.809L26.5064 347.582L25.9178 348.064L25.0715 347.03L22.2837 349.313L21.706 348.607L24.4938 346.324L23.6475 345.291Z" fill="#002582"/>
<rect x="17.4214" y="298.4" width="33" height="16.2727" rx="8.13636" transform="rotate(53.1492 17.4214 298.4)" fill="white" stroke="#005BBF" stroke-width="2"/>
<path d="M15.6442 312.703L19.1359 310.086L20.8994 312.439L20.2907 312.895L19.0806 311.28L18.2485 311.904L19.3679 313.397L18.7593 313.854L17.6399 312.36L16.8061 312.985L18.0214 314.606L17.4127 315.062L15.6442 312.703ZM23.5282 315.946L20.0364 318.563L19.5585 317.926L20.6177 314.759L20.5985 314.734L18.4008 316.381L17.8475 315.643L21.3393 313.026L21.8248 313.673L20.7584 316.827L20.7814 316.857L22.9774 315.211L23.5282 315.946ZM21.4213 320.411L20.4936 319.173L23.9853 316.556L24.9207 317.804C25.184 318.155 25.3407 318.51 25.3908 318.868C25.4421 319.226 25.3887 319.57 25.2307 319.902C25.0735 320.234 24.8136 320.537 24.451 320.808C24.0873 321.081 23.7231 321.246 23.3586 321.305C22.995 321.364 22.6474 321.319 22.3159 321.168C21.9853 321.018 21.6871 320.766 21.4213 320.411ZM21.6794 319.437L22.0308 319.906C22.1944 320.124 22.3706 320.279 22.5595 320.37C22.7504 320.461 22.9558 320.483 23.1757 320.435C23.3976 320.388 23.6387 320.267 23.8989 320.072C24.157 319.878 24.3393 319.682 24.4459 319.483C24.5533 319.286 24.5899 319.083 24.5556 318.877C24.5213 318.67 24.4224 318.457 24.2588 318.239L23.9061 317.768L21.6794 319.437Z" fill="#002582"/>
<rect x="158" y="243" width="21" height="9" rx="4.5" transform="rotate(-90 158 243)" fill="white" stroke="#005BBF" stroke-width="2"/>
<rect x="202" y="244" width="21" height="9" rx="4.5" transform="rotate(-90 202 244)" fill="white" stroke="#005BBF" stroke-width="2"/>
<rect x="253" y="178" width="21" height="9" rx="4.5" fill="white" stroke="#005BBF" stroke-width="2"/>
<rect x="253" y="132" width="21" height="9" rx="4.5" fill="white" stroke="#005BBF" stroke-width="2"/>
<rect x="252" y="82" width="21" height="9" rx="4.5" fill="white" stroke="#005BBF" stroke-width="2"/>
<rect x="159" y="22" width="21" height="9" rx="4.5" transform="rotate(-90 159 22)" fill="white" stroke="#005BBF" stroke-width="2"/>
<rect x="61" y="50" width="21" height="9" rx="4.5" fill="white" stroke="#005BBF" stroke-width="2"/>
<rect x="56" y="110" width="21" height="9" rx="4.5" fill="white" stroke="#005BBF" stroke-width="2"/>
<path d="M91.819 324.915C91.772 325.015 91.8149 325.134 91.9148 325.181C92.0148 325.228 92.1339 325.185 92.181 325.085L91.819 324.915ZM116.188 273.932C116.151 273.828 116.036 273.774 115.932 273.812L114.239 274.422C114.135 274.459 114.081 274.574 114.118 274.677C114.156 274.781 114.27 274.835 114.374 274.798L115.88 274.256L116.422 275.761C116.459 275.865 116.574 275.919 116.677 275.882C116.781 275.844 116.835 275.73 116.798 275.626L116.188 273.932ZM92.181 325.085L116.181 274.085L115.819 273.915L91.819 324.915L92.181 325.085Z" fill="#00096B"/>
<path d="M188.818 262.3C188.707 262.3 188.618 262.39 188.618 262.5C188.618 262.61 188.707 262.7 188.818 262.7V262.3ZM245.324 262.641C245.402 262.563 245.402 262.437 245.324 262.359L244.051 261.086C243.973 261.008 243.846 261.008 243.768 261.086C243.69 261.164 243.69 261.291 243.768 261.369L244.9 262.5L243.768 263.631C243.69 263.709 243.69 263.836 243.768 263.914C243.846 263.992 243.973 263.992 244.051 263.914L245.324 262.641ZM188.818 262.7H245.182V262.3H188.818V262.7Z" fill="#00096B"/>
<path d="M38.8324 164.459C38.8427 164.35 38.762 164.252 38.652 164.242C38.542 164.231 38.4445 164.312 38.4342 164.422L38.8324 164.459ZM33.2127 220.687C33.2832 220.772 33.4093 220.784 33.4943 220.713L34.8805 219.565C34.9656 219.494 34.9774 219.368 34.9069 219.283C34.8365 219.198 34.7104 219.186 34.6253 219.257L33.3932 220.277L32.3725 219.045C32.302 218.96 32.1759 218.948 32.0909 219.019C32.0058 219.089 31.994 219.215 32.0644 219.301L33.2127 220.687ZM38.4342 164.422L33.1676 220.54L33.5659 220.578L38.8324 164.459L38.4342 164.422Z" fill="#00096B"/>
<path d="M286.8 185.682C286.8 185.793 286.89 185.882 287 185.882C287.11 185.882 287.2 185.793 287.2 185.682H286.8ZM287.141 129.176C287.063 129.098 286.937 129.098 286.859 129.176L285.586 130.449C285.508 130.527 285.508 130.654 285.586 130.732C285.664 130.81 285.791 130.81 285.869 130.732L287 129.6L288.131 130.732C288.209 130.81 288.336 130.81 288.414 130.732C288.492 130.654 288.492 130.527 288.414 130.449L287.141 129.176ZM287.2 185.682V129.317H286.8V185.682H287.2Z" fill="#00096B"/>
</svg>